<svg id="Layer_1" data-name="Layer 1" xmlns="http://www.w3.org/2000/svg" viewBox="0 0 96.41 122.88"><title>bill</title><path d="M65.07,122.88H5.46a5.45,5.45,0,0,1-3.85-1.61A5.36,5.36,0,0,1,0,117.42V5.45A5.35,5.35,0,0,1,1.61,1.61,5.36,5.36,0,0,1,5.46,0H90.87a5.48,5.48,0,0,1,5.45,5.45V91.12a3.1,3.1,0,0,1,.09.61,2.58,2.58,0,0,1-.83,1.86l-28.17,28.5a3.77,3.77,0,0,1-2.34.79ZM27,87.25a12.91,12.91,0,0,1,9.17,3.8l.07.07A13,13,0,1,1,27,87.25Zm0,6.08a6.89,6.89,0,1,1-6.88,6.88A6.89,6.89,0,0,1,27,93.33Zm7.35-.46a10.28,10.28,0,1,0,.06.06l-.06-.06ZM14.88,13.29H29.49a.84.84,0,0,1,.84.84V27.45a.85.85,0,0,1-.84.84H14.88a.85.85,0,0,1-.84-.84V14.13a.84.84,0,0,1,.84-.84ZM78.7,28.1H69.34V13.48H74V24.36H78.7V28.1Zm-11,0H58.35V13.48H63V24.36h4.68V28.1ZM51,28.1V13.48h4.68V28.1Zm-14.2,0V13.48h7.58a4.41,4.41,0,0,1,3,.82,3,3,0,0,1,.9,2.38,4.22,4.22,0,0,1-.58,2.42,2.65,2.65,0,0,1-1.53,1.12v.14C48.05,20.68,49,22,49,24.21A4.13,4.13,0,0,1,48.06,27a3.66,3.66,0,0,1-2.88,1.07Zm6.51-5.83H41.46v2.39h1.8c.66,0,1-.4,1-1.19s-.32-1.2-1-1.2Zm-.36-5.59H41.46v2.18h1.45c.59,0,.89-.36.89-1.09s-.29-1.09-.87-1.09ZM23.52,45.85a1.76,1.76,0,0,1,0-3.51H58.64a1.76,1.76,0,0,1,0,3.51Zm0,26.88a1.75,1.75,0,1,1,0-3.5H72a1.75,1.75,0,0,1,0,3.5Zm0-10.7a1.75,1.75,0,1,1,0-3.5H58.64a1.75,1.75,0,0,1,0,3.5Zm55.8-8.43H17.09V77.54H79.32V53.6ZM17.09,50.1H79.32V37.59H17.09V50.1Zm-1.75-16H81.07a1.75,1.75,0,0,1,1.75,1.75V79.29A1.75,1.75,0,0,1,81.07,81H15.34a1.75,1.75,0,0,1-1.75-1.75V35.83a1.75,1.75,0,0,1,1.75-1.75ZM63,118V96.65a7.37,7.37,0,0,1,7.4-7.4H91.34V5.45a.47.47,0,0,0-.18-.4.52.52,0,0,0-.39-.18H5.41a.47.47,0,0,0-.4.18.63.63,0,0,0-.17.4v112a.41.41,0,0,0,.17.4.55.55,0,0,0,.4.17H63Zm4.89-21.33v17.87L88,94.14H70.4a2.64,2.64,0,0,0-1.77.74,2.52,2.52,0,0,0-.74,1.77Z"/></svg>