<?xml version="1.0" standalone="no"?>
<!DOCTYPE svg PUBLIC "-//W3C//DTD SVG 20010904//EN"
 "http://www.w3.org/TR/2001/REC-SVG-20010904/DTD/svg10.dtd">
<svg version="1.0" xmlns="http://www.w3.org/2000/svg"
 width="49.000000pt" height="49.000000pt" viewBox="0 0 49.000000 49.000000"
 preserveAspectRatio="xMidYMid meet">

<g transform="translate(0.000000,49.000000) scale(0.100000,-0.100000)"
fill="#000000" stroke="none">
<path d="M206 473 c-7 -8 7 -53 20 -64 18 -15 18 -29 -1 -29 -14 0 -20 -22
-17 -62 1 -13 -8 -18 -46 -20 -39 -3 -47 -6 -47 -23 0 -16 8 -21 43 -23 28 -2
42 -8 42 -18 0 -8 5 -14 10 -14 7 0 10 -33 8 -93 -2 -74 -6 -92 -18 -92 -16 0
-18 26 -9 115 l4 45 -52 3 c-47 3 -53 6 -53 25 0 36 -19 94 -40 119 -18 22
-19 22 -37 5 -17 -17 -17 -19 4 -56 20 -34 22 -49 19 -159 -2 -67 0 -122 3
-122 4 0 17 7 29 16 20 14 22 22 17 55 -7 39 -6 39 25 39 31 0 32 0 25 -39 -9
-55 16 -71 110 -71 94 0 119 16 110 71 -7 39 -6 39 25 39 31 0 32 -1 25 -39
-5 -29 -2 -42 10 -55 25 -25 49 -21 40 7 -3 12 -6 29 -5 37 1 8 1 51 1 95 -1
65 3 88 21 122 22 41 22 44 5 60 -17 17 -19 17 -37 -5 -21 -25 -40 -83 -40
-119 0 -19 -6 -22 -52 -25 l-53 -3 4 -45 c9 -89 7 -115 -9 -115 -12 0 -16 18
-18 92 -2 60 1 93 8 93 5 0 10 6 10 14 0 10 14 16 43 18 34 2 42 7 42 23 0 17
-8 20 -47 23 -38 2 -47 7 -46 20 3 40 -3 62 -17 62 -19 0 -19 9 -1 29 8 9 16
27 18 40 3 22 -1 25 -35 26 -21 0 -39 -1 -41 -2z m57 -20 c4 -3 2 -12 -4 -20
-9 -10 -15 -10 -25 -2 -8 6 -11 15 -8 20 6 11 28 12 37 2z m7 -123 c0 -25 -4
-30 -25 -30 -21 0 -25 5 -25 30 0 25 4 30 25 30 21 0 25 -5 25 -30z m-217 -25
c17 -36 24 -135 9 -135 -4 0 -6 16 -4 35 3 23 -3 49 -17 75 -22 43 -26 60 -13
60 5 0 16 -16 25 -35z m417 25 c0 -5 -9 -28 -21 -50 -14 -26 -20 -52 -17 -75
2 -19 0 -35 -4 -35 -15 0 -8 99 9 135 16 33 33 46 33 25z m-157 -57 c-34 -2
-93 -2 -130 0 -37 2 -10 3 62 3 72 0 102 -1 68 -3z m-33 -33 c0 -5 -16 -10
-35 -10 -19 0 -35 5 -35 10 0 6 16 10 35 10 19 0 35 -4 35 -10z m-33 -132 c-2
-24 -4 -7 -4 37 0 44 2 63 4 43 2 -21 2 -57 0 -80z m-79 65 c-16 -2 -40 -2
-55 0 -16 2 -3 4 27 4 30 0 43 -2 28 -4z m210 0 c-16 -2 -40 -2 -55 0 -16 2
-3 4 27 4 30 0 43 -2 28 -4z m-208 -33 c0 -6 -27 -10 -60 -10 -33 0 -60 4 -60
10 0 6 27 10 60 10 33 0 60 -4 60 -10z m270 0 c0 -6 -27 -10 -60 -10 -33 0
-60 4 -60 10 0 6 27 10 60 10 33 0 60 -4 60 -10z m-370 -62 c0 -49 -5 -47 -14
5 -4 23 -3 37 4 37 5 0 10 -19 10 -42z m94 5 c-9 -52 -14 -54 -14 -5 0 23 5
42 10 42 7 0 8 -14 4 -37z m176 -5 c0 -49 -5 -47 -14 5 -4 23 -3 37 4 37 5 0
10 -19 10 -42z m94 5 c-9 -52 -14 -54 -14 -5 0 23 5 42 10 42 7 0 8 -14 4 -37z
m-174 -43 c0 -5 -7 -10 -15 -10 -8 0 -15 5 -15 10 0 6 7 10 15 10 8 0 15 -4
15 -10z"/>
</g>
</svg>
