<?xml version="1.0" standalone="no"?>
<!DOCTYPE svg PUBLIC "-//W3C//DTD SVG 20010904//EN"
 "http://www.w3.org/TR/2001/REC-SVG-20010904/DTD/svg10.dtd">
<svg version="1.0" xmlns="http://www.w3.org/2000/svg"
 width="769.000000pt" height="398.000000pt" viewBox="0 0 769.000000 398.000000"
 preserveAspectRatio="xMidYMid meet">

<g transform="translate(0.000000,398.000000) scale(0.100000,-0.100000)"
fill="#000000" stroke="none">
<path d="M3465 3944 c-116 -18 -209 -39 -294 -68 -501 -170 -870 -604 -956
-1125 -27 -162 -17 -418 23 -571 70 -271 186 -475 382 -671 201 -201 438 -329
723 -391 136 -29 418 -32 547 -5 565 118 999 533 1129 1080 89 374 18 781
-192 1105 -137 211 -345 395 -572 506 -209 102 -351 136 -590 141 -93 2 -183
1 -200 -1z m432 -53 c553 -114 976 -531 1099 -1085 18 -81 30 -365 19 -451 -5
-47 -10 -56 -23 -51 -90 30 -274 76 -344 86 l-88 13 0 114 c0 242 -78 448
-238 631 -190 217 -510 338 -800 303 -214 -26 -400 -115 -551 -263 -212 -210
-312 -503 -272 -798 l13 -91 -31 -31 c-55 -56 -75 -113 -76 -208 0 -74 4 -92
29 -139 39 -75 119 -153 181 -176 28 -10 51 -19 53 -20 1 -1 -5 -15 -13 -32
-11 -23 -13 -37 -5 -57 9 -24 8 -26 -18 -26 -90 0 -280 76 -358 144 -54 46
-127 184 -118 221 8 31 38 49 70 41 28 -7 31 -24 7 -41 -19 -14 -11 -45 11
-45 9 0 20 10 27 21 15 28 -2 66 -36 79 -29 11 -51 5 -82 -22 l-21 -20 -36
109 c-86 268 -87 576 -1 847 38 119 135 309 209 407 74 98 222 243 316 310
183 131 415 220 646 249 108 14 316 4 431 -19z m-857 -1569 c130 -65 165 -262
55 -308 -41 -17 -79 -18 -108 -3 -84 43 -73 153 19 178 l29 8 -43 13 c-55 17
-124 1 -164 -37 l-26 -25 -7 22 c-4 14 -1 28 11 41 23 25 118 53 156 45 49
-10 99 -46 115 -84 16 -39 11 -52 -12 -28 -25 24 -61 20 -85 -11 -49 -63 16
-127 93 -92 62 28 64 152 4 218 -58 63 -185 81 -270 37 -26 -12 -49 -21 -52
-18 -13 13 -3 33 25 47 80 41 173 40 260 -3z m1466 -7 c-3 -8 -22 -17 -43 -20
-187 -30 -365 -124 -532 -281 -127 -119 -212 -251 -227 -351 -6 -43 -24 -60
-24 -23 0 28 42 140 72 191 15 24 54 77 87 117 l61 72 -72 -52 c-208 -150
-457 -303 -489 -301 -9 1 -33 9 -55 18 l-38 16 109 60 c101 55 263 160 475
309 86 61 290 170 390 208 81 31 168 54 230 61 56 6 66 2 56 -24z m301 9 c164
-34 208 -56 185 -92 -7 -10 -22 -9 -78 4 -74 18 -290 25 -356 11 -39 -8 -45
-3 -28 23 8 12 39 15 179 15 202 0 185 14 -26 22 -79 3 -143 7 -143 9 0 1 3
10 7 19 5 16 17 17 97 11 50 -4 124 -14 163 -22z m-2109 -123 c-37 -60 -47
-107 -36 -175 14 -94 82 -187 169 -231 52 -27 149 -47 212 -44 42 2 95 -17 82
-29 -3 -4 -25 -13 -47 -22 -60 -22 -61 -40 -2 -40 25 0 64 5 84 11 31 10 46 8
84 -6 25 -10 43 -21 41 -25 -9 -15 -172 -69 -255 -84 -45 -9 -112 -16 -149
-16 -70 0 -232 23 -274 39 -14 5 -46 38 -73 72 -26 34 -43 60 -38 58 5 -2 36
-18 69 -35 83 -44 185 -73 275 -81 l75 -6 -29 31 c-35 37 -30 74 11 96 l28 14
-45 12 c-98 26 -190 105 -236 203 -44 94 -28 221 38 301 25 31 33 35 40 23 5
-11 -2 -32 -24 -66z m1790 52 c-2 -11 -30 -26 -78 -43 -156 -56 -287 -134
-360 -217 -66 -75 -94 -146 -96 -238 -2 -73 -3 -80 -23 -83 -18 -3 -21 2 -22
35 -6 155 43 255 182 372 72 61 218 139 309 167 30 9 60 17 65 19 21 7 26 4
23 -12z m436 -45 c27 -7 51 -18 53 -25 3 -8 -10 -7 -44 4 -62 19 -258 28 -348
15 -38 -5 -72 -8 -74 -6 -34 31 304 41 413 12z m-454 -17 c0 -5 -28 -19 -62
-30 -156 -52 -330 -184 -377 -286 -13 -28 -26 -78 -29 -113 -3 -40 -8 -59 -13
-50 -24 37 13 167 67 238 71 91 201 177 344 226 36 13 66 23 68 23 1 1 2 -3 2
-8z m-1696 -57 c3 -9 6 -46 6 -83 0 -57 4 -74 29 -113 30 -47 111 -98 156 -98
12 0 30 -10 41 -21 l19 -22 -40 7 c-117 20 -196 71 -234 149 -23 48 -27 116
-10 166 12 34 24 40 33 15z m2155 0 c17 -4 31 -11 31 -15 0 -5 -12 -6 -27 -2
-50 13 -216 7 -282 -11 -84 -23 -154 -58 -180 -93 -27 -34 -24 -67 7 -71 21
-3 22 -2 10 17 -15 25 1 47 27 37 27 -10 15 -59 -18 -70 -23 -8 -31 -6 -49 11
-55 56 35 141 195 183 72 19 223 26 286 14z m11 -64 c11 -7 -2 -10 -45 -10
-81 -1 -155 -27 -175 -62 -17 -32 -6 -60 26 -67 16 -3 17 -1 5 13 -15 18 -8
46 12 46 25 0 40 -26 28 -48 -14 -27 -37 -34 -65 -20 -53 24 -36 95 30 127 55
27 156 39 184 21z m-2103 -54 c18 -29 53 -76 79 -105 49 -54 46 -62 -14 -32
-64 33 -112 104 -112 166 0 38 12 31 47 -29z m878 9 c-87 -72 -486 -285 -532
-285 -20 0 -50 16 -43 23 3 2 43 17 90 32 84 28 330 148 445 218 69 43 82 46
40 12z m-18 -227 c-32 -43 -63 -105 -72 -145 -3 -18 -11 -33 -16 -33 -12 0 -2
41 22 99 11 24 19 45 19 48 0 2 -26 -14 -57 -35 -91 -61 -152 -94 -165 -90 -6
2 17 20 53 40 35 20 102 64 148 97 47 33 87 59 89 56 2 -2 -7 -19 -21 -37z
m730 21 c34 -13 80 -55 99 -91 35 -68 1 -193 -70 -256 -57 -50 -101 -65 -191
-66 -132 0 -239 57 -307 163 -33 53 -35 67 -9 74 14 3 23 -3 31 -24 34 -81
145 -150 256 -157 145 -9 235 59 236 179 0 54 -17 89 -57 115 -27 18 -100 23
-115 8 -6 -6 6 -8 29 -6 33 3 45 -1 76 -30 67 -62 56 -150 -28 -212 -62 -46
-208 -29 -293 33 -42 31 -91 106 -75 115 5 3 14 -7 21 -23 30 -74 134 -133
234 -134 102 -1 166 52 166 136 0 49 -44 97 -87 96 -15 0 -21 -3 -13 -6 70
-26 65 -105 -7 -119 -27 -5 -37 -1 -63 24 -24 24 -30 39 -30 72 0 36 6 48 39
81 34 34 45 39 84 39 25 0 58 -5 74 -11z m-1087 -220 c0 -14 -5 -19 -17 -17
-26 5 -29 38 -4 38 15 0 21 -6 21 -21z m33 -26 c-22 -31 -61 -40 -93 -23 -16
9 -35 6 -90 -14 -39 -14 -115 -35 -170 -46 -108 -22 -311 -32 -316 -15 -3 6
37 10 104 11 121 1 247 24 371 65 61 21 88 26 101 19 10 -6 31 -10 45 -10 20
0 29 7 38 30 7 19 15 26 21 20 7 -7 3 -19 -11 -37z m332 -89 c19 -65 70 -114
118 -114 40 0 66 14 43 23 -19 8 -21 43 -3 50 19 7 47 -12 47 -33 0 -10 -12
-28 -27 -40 -49 -39 -132 -12 -174 56 -21 35 -42 141 -30 159 3 6 7 -3 9 -20
2 -16 9 -53 17 -81z m-59 -97 c48 -93 116 -137 213 -137 47 0 57 4 87 34 23
23 34 43 34 63 0 38 21 66 43 57 12 -4 17 -17 17 -41 0 -47 -58 -106 -120
-123 -169 -46 -323 94 -319 289 l1 56 14 -83 c8 -46 22 -98 30 -115z"/>
<path d="M1710 3690 c-1 -14 -3 -36 -5 -50 -1 -14 -6 -169 -10 -346 -8 -360
-11 -342 66 -412 53 -48 69 -84 69 -157 0 -28 3 -192 6 -365 6 -316 -1 -481
-32 -740 -51 -437 -40 -498 85 -488 107 9 109 34 51 583 -16 155 -20 262 -20
575 0 291 3 389 12 398 10 10 10 17 0 32 -10 16 -10 30 0 67 9 38 24 60 72
106 l61 58 -2 267 c-3 295 -12 497 -22 487 -3 -4 -11 -132 -16 -285 -10 -285
-16 -318 -48 -291 -11 9 -16 62 -21 244 -7 245 -14 342 -25 332 -3 -4 -11
-132 -16 -285 -10 -285 -16 -318 -48 -291 -11 9 -16 63 -21 254 -12 417 -29
438 -40 47 -4 -135 -9 -257 -12 -272 -6 -32 -39 -39 -48 -10 -2 9 -8 129 -12
266 -4 138 -10 261 -15 275 l-7 26 -2 -25z"/>
<path d="M5854 3645 c-15 -23 -16 -82 -9 -693 4 -367 8 -896 9 -1177 2 -537 8
-611 50 -653 15 -15 19 -15 44 -2 90 50 102 256 42 723 -26 200 -26 222 5 259
42 50 47 92 46 407 -3 648 -39 1100 -92 1144 -32 26 -75 22 -95 -8z"/>
<path d="M5408 3646 c-174 -62 -271 -357 -204 -614 27 -100 87 -177 161 -203
43 -16 60 -53 51 -116 -4 -28 -2 -51 5 -59 8 -10 10 -136 6 -431 -4 -372 -7
-443 -31 -648 -18 -148 -26 -265 -24 -328 3 -90 5 -101 27 -118 32 -26 110
-26 142 0 21 17 24 29 27 108 2 53 -7 185 -24 333 -27 233 -28 266 -27 670 1
545 0 519 13 550 7 16 25 31 47 39 53 20 117 89 141 153 80 214 31 486 -111
613 -68 62 -126 77 -199 51z m-18 -98 c-64 -84 -85 -160 -85 -303 0 -89 5
-133 18 -172 40 -115 114 -175 218 -177 32 -1 55 -4 53 -7 -10 -16 -100 -31
-156 -26 -143 13 -218 132 -218 347 0 103 15 172 51 245 36 71 109 141 151
144 4 1 -10 -23 -32 -51z"/>
<path d="M6301 3363 c-22 -44 -71 -199 -85 -273 -31 -163 -13 -347 44 -461 35
-68 107 -136 232 -220 65 -44 123 -89 130 -101 10 -18 14 -135 16 -510 3 -529
3 -538 -52 -573 -14 -10 -68 -27 -119 -40 -95 -23 -147 -41 -147 -50 0 -3 161
-5 358 -4 354 0 357 1 316 19 -23 10 -76 25 -119 34 -97 20 -135 41 -158 88
-16 33 -17 68 -11 528 7 472 8 492 27 517 11 14 66 55 121 90 124 80 177 130
221 208 54 97 69 163 69 300 0 150 -26 279 -85 415 l-21 50 -364 0 c-336 0
-364 -1 -373 -17z"/>
<path d="M967 3158 c-17 -69 -40 -333 -41 -463 l-1 -150 32 -48 c25 -38 30
-54 24 -75 -4 -15 -4 -76 0 -137 17 -237 9 -488 -25 -800 -33 -294 -23 -355
54 -355 55 0 70 28 70 128 0 48 -10 164 -21 257 -24 206 -37 727 -21 817 8 41
8 66 1 88 -9 24 -8 35 5 53 9 12 24 33 33 47 15 20 18 46 17 165 -1 140 -29
442 -45 480 -5 11 -8 -74 -7 -200 1 -121 -1 -226 -6 -233 -9 -15 -38 -16 -53
-1 -8 8 -9 77 -6 230 6 204 3 252 -10 197z"/>
<path d="M1258 3170 c-4 -8 -9 -140 -13 -292 -7 -306 -8 -301 56 -356 43 -37
65 -93 48 -124 -7 -14 -7 -23 1 -33 22 -26 7 -654 -19 -875 -27 -217 -25 -325
4 -346 28 -21 91 -18 115 6 27 27 27 123 -2 368 -31 271 -32 903 -2 964 8 15
29 39 48 53 19 14 39 38 44 53 8 26 -2 580 -12 589 -6 7 -14 -100 -21 -282 -6
-154 -13 -191 -35 -169 -5 5 -13 108 -16 227 -4 120 -11 220 -16 223 -4 3 -8
-5 -8 -18 -1 -92 -20 -431 -24 -435 -3 -3 -12 -3 -19 0 -12 4 -16 50 -22 231
-4 124 -11 226 -15 226 -4 0 -11 -93 -14 -207 -8 -230 -10 -253 -30 -253 -20
0 -26 32 -27 165 -1 150 -13 305 -21 285z"/>
<path d="M45 2956 c-18 -55 -25 -105 -25 -183 0 -182 74 -331 252 -506 l99
-98 -3 -454 -3 -454 -30 -31 c-16 -16 -47 -35 -69 -41 -60 -16 -116 -40 -116
-49 0 -5 107 -9 238 -9 226 0 236 0 213 17 -13 9 -51 26 -85 38 -46 15 -67 29
-85 55 l-23 34 5 448 5 449 96 90 c111 104 196 224 234 331 21 59 26 91 26
177 1 58 -5 124 -12 148 l-13 42 -319 2 c-176 1 -334 2 -351 3 -17 1 -32 -3
-34 -9z"/>
<path d="M7161 2317 c-35 -103 -44 -181 -31 -259 16 -93 55 -149 149 -214 41
-28 78 -60 82 -70 4 -10 8 -140 8 -287 l1 -268 -24 -23 c-13 -14 -45 -29 -77
-35 -113 -24 -87 -31 116 -31 205 1 220 5 111 34 -33 8 -66 21 -74 29 -12 13
-14 62 -13 296 1 155 4 287 7 294 2 6 30 29 62 49 136 88 167 144 166 298 0
85 -5 119 -25 175 l-24 70 -207 3 -206 2 -21 -63z"/>
<path d="M1746 765 c-86 -30 -128 -89 -128 -176 1 -89 38 -134 231 -282 103
-80 127 -172 62 -238 -47 -46 -130 -58 -207 -29 -45 17 -74 50 -80 92 -4 21
-10 38 -14 38 -9 0 -21 -125 -14 -144 8 -21 38 -26 179 -26 122 0 133 2 167
25 77 52 108 162 71 246 -29 66 -65 102 -173 179 -54 38 -108 81 -119 96 -31
39 -37 91 -16 129 24 45 57 60 136 60 79 0 118 -22 134 -73 14 -49 23 -38 27
33 l3 64 -48 11 c-67 14 -164 12 -211 -5z"/>
<path d="M2189 753 c-5 -15 -12 -47 -15 -72 -5 -49 -7 -49 32 6 13 20 80 32
177 33 l77 0 0 -312 c0 -175 -4 -329 -10 -349 -7 -24 -18 -38 -37 -46 -22 -9
1 -11 112 -11 87 0 132 3 120 8 -11 5 -30 9 -42 9 -12 1 -27 9 -32 20 -8 14
-15 438 -11 660 0 24 0 24 98 19 110 -5 139 -17 154 -59 6 -17 12 -28 15 -26
2 3 6 33 10 68 l5 64 -288 0 c-159 0 -304 3 -322 7 -29 7 -34 5 -43 -19z"/>
<path d="M3169 753 c-6 -16 -28 -73 -49 -128 -133 -348 -221 -561 -239 -579
-12 -11 -38 -26 -59 -32 -33 -11 -22 -12 88 -13 116 0 123 1 93 14 -20 9 -33
21 -32 32 0 10 17 65 38 123 l38 105 130 3 130 3 47 -120 c31 -77 45 -127 41
-141 -6 -19 -3 -20 107 -19 110 0 112 1 74 15 -50 18 -63 30 -87 75 -18 37
-34 75 -186 449 -85 210 -100 240 -114 240 -5 0 -14 -12 -20 -27z m61 -272
c27 -73 50 -139 50 -147 0 -11 -22 -14 -105 -14 -58 0 -105 3 -105 6 0 5 78
232 96 277 3 10 8 16 10 14 2 -1 26 -63 54 -136z"/>
<path d="M5572 678 c-22 -57 -81 -207 -130 -333 -104 -268 -124 -311 -151
-320 -26 -8 -78 20 -120 64 -43 46 -160 187 -191 228 l-23 32 43 48 c82 92
100 178 58 263 -19 36 -34 51 -81 74 -58 29 -60 29 -248 31 -180 2 -231 -5
-154 -19 27 -5 39 -14 46 -34 12 -31 8 -647 -4 -673 -5 -9 -23 -21 -40 -27
-25 -8 -2 -10 108 -10 136 0 139 0 94 14 -56 17 -59 26 -59 190 l0 114 74 0
74 0 101 -130 c56 -71 118 -142 138 -157 36 -28 38 -28 197 -30 150 -3 159 -2
127 12 -39 18 -39 19 16 168 l36 97 127 0 128 0 51 -127 c38 -96 48 -130 40
-140 -10 -11 8 -13 102 -12 l114 1 -43 15 c-27 9 -51 27 -65 49 -13 18 -86
187 -162 374 -79 193 -144 340 -151 340 -7 0 -30 -46 -52 -102z m-668 23 c48
-30 76 -92 76 -169 0 -74 -17 -120 -55 -150 -22 -18 -41 -22 -94 -22 -120 0
-111 -14 -111 185 0 129 3 175 13 179 28 13 136 -2 171 -23z m761 -226 c26
-72 50 -136 53 -142 3 -10 -22 -13 -107 -13 -61 0 -111 3 -111 6 0 21 104 293
110 287 4 -4 28 -66 55 -138z"/>
<path d="M6166 764 c-3 -9 -6 -174 -6 -369 0 -380 2 -363 -55 -383 -24 -8 -4
-10 100 -10 117 0 126 1 90 12 -26 7 -44 21 -52 36 -7 16 -14 125 -19 293 l-7
269 171 -179 c249 -261 426 -433 445 -433 15 0 17 25 18 273 1 149 4 315 8
367 l6 95 35 12 c19 7 33 13 30 14 -3 1 -56 2 -118 3 -116 2 -153 -6 -82 -18
30 -5 43 -13 49 -29 4 -12 11 -146 14 -297 l6 -275 -82 85 c-45 47 -183 190
-306 318 -123 127 -227 232 -231 232 -4 0 -11 -7 -14 -16z"/>
<path d="M7045 767 c-12 -37 -24 -121 -19 -126 4 -3 9 0 11 6 19 53 71 72 194
73 l76 0 5 -67 c6 -81 0 -568 -8 -601 -3 -14 -18 -29 -37 -37 -29 -13 -20 -14
108 -14 121 1 135 3 103 13 -20 6 -43 17 -50 24 -10 10 -14 91 -16 349 l-3
336 104 -5 c118 -6 145 -17 154 -59 10 -52 23 -31 23 39 l0 67 -287 0 c-159 0
-303 3 -321 7 -23 5 -34 4 -37 -5z"/>
<path d="M150 760 c0 -4 17 -11 38 -16 l37 -9 8 -70 c9 -76 2 -586 -8 -621 -4
-12 -20 -26 -38 -32 -25 -8 -1 -10 108 -10 87 0 132 3 120 8 -11 5 -30 9 -42
9 -35 1 -43 31 -43 170 l0 131 74 0 73 0 72 -95 c95 -124 157 -193 192 -210
19 -10 56 -15 116 -14 l88 1 -54 16 c-64 19 -114 64 -244 225 l-87 107 33 29
c18 17 45 52 60 79 67 123 36 233 -81 284 -42 19 -68 21 -234 23 -104 1 -188
-1 -188 -5z m360 -56 c42 -25 70 -72 77 -132 9 -81 -4 -137 -41 -177 -32 -33
-36 -35 -102 -35 -123 0 -114 -14 -114 185 0 129 3 175 13 179 25 12 135 -2
167 -20z"/>
<path d="M953 758 c-2 -5 7 -8 21 -8 14 0 35 -9 46 -20 19 -19 20 -33 20 -314
0 -362 -2 -382 -44 -401 -27 -12 -4 -13 193 -12 l225 2 8 34 c5 18 8 47 6 65
l-3 31 -17 -37 c-22 -49 -43 -58 -140 -58 -130 0 -128 -2 -128 186 l0 154 83
0 c108 0 127 -6 134 -41 9 -48 20 -33 26 39 6 72 3 82 -15 64 -8 -8 -50 -12
-120 -12 l-108 0 0 145 0 145 84 0 c91 0 134 -11 141 -35 16 -51 16 -51 24
-35 5 8 11 38 13 65 l5 50 -225 0 c-123 0 -226 -3 -229 -7z"/>
<path d="M3614 758 c-3 -5 5 -8 18 -8 14 0 33 -6 44 -14 18 -13 19 -32 24
-278 5 -246 7 -266 28 -313 28 -61 45 -80 101 -117 43 -27 49 -28 175 -28 150
0 192 14 249 80 60 71 70 124 77 403 5 261 6 266 53 267 9 0 17 3 17 8 0 4
-52 7 -115 7 -115 0 -145 -7 -81 -19 19 -4 37 -14 40 -22 3 -9 6 -122 6 -253
0 -260 -8 -313 -57 -371 -40 -48 -92 -70 -168 -70 -78 0 -131 23 -170 74 -49
64 -55 108 -55 372 0 259 3 274 51 274 10 0 19 4 19 8 0 11 -250 10 -256 0z"/>
</g>
</svg>
