<?xml version="1.0" standalone="no"?>
<!DOCTYPE svg PUBLIC "-//W3C//DTD SVG 20010904//EN" "http://www.w3.org/TR/2001/REC-SVG-20010904/DTD/svg10.dtd">
<svg version="1.0" xmlns="http://www.w3.org/2000/svg" width="1024.000000pt" height="1024.000000pt"
    viewBox="0 0 1024.000000 1024.000000" preserveAspectRatio="xMidYMid meet">

    <g transform="translate(0.000000,1024.000000) scale(0.100000,-0.100000)" fill="#ffffff" stroke="none">
        <path d="M4675 7253 c-561 -73 -1031 -457 -1198 -978 -54 -169 -62 -226 -62
-445 0 -218 7 -268 62 -445 126 -404 474 -758 886 -904 163 -57 271 -75 472
-75 136 0 201 4 265 17 441 93 805 364 1004 747 154 299 199 606 135 938 -113
587 -596 1048 -1192 1136 -94 14 -295 19 -372 9z m433 -53 c551 -112 974 -529
1098 -1084 18 -80 30 -364 19 -452 -5 -46 -10 -55 -23 -50 -96 31 -246 69
-329 83 l-103 17 0 114 c0 240 -79 449 -236 629 -191 217 -512 339 -802 304
-229 -28 -415 -122 -575 -291 -45 -48 -97 -112 -115 -143 -118 -198 -164 -420
-131 -640 l11 -73 -30 -32 c-55 -59 -76 -117 -77 -212 0 -74 4 -92 29 -139 39
-75 119 -153 181 -176 28 -10 51 -19 53 -20 1 -1 -5 -15 -13 -32 -11 -23 -13
-37 -5 -57 9 -24 8 -26 -19 -26 -91 0 -278 75 -357 144 -54 46 -127 184 -118
221 8 31 38 49 70 41 28 -7 31 -24 7 -41 -19 -14 -11 -45 11 -45 9 0 20 10 27
21 15 28 -2 66 -36 79 -29 11 -51 5 -81 -22 -21 -19 -21 -19 -43 40 -101 278
-107 617 -15 899 65 199 174 380 323 535 231 241 518 387 843 428 109 13 319
4 436 -20z m-858 -1567 c130 -67 165 -263 55 -309 -41 -17 -79 -18 -108 -3
-84 43 -73 153 19 178 l29 8 -43 13 c-55 17 -124 1 -164 -37 l-26 -25 -7 22
c-4 14 -1 28 11 41 23 25 118 53 156 45 49 -10 99 -46 115 -84 16 -39 11 -52
-12 -28 -25 24 -61 20 -85 -11 -49 -63 16 -127 93 -92 62 28 64 152 4 218 -58
63 -185 81 -270 37 -26 -12 -49 -21 -52 -18 -12 12 -3 29 24 45 74 44 174 44
261 0z m1466 -8 c-3 -8 -22 -17 -43 -20 -196 -34 -363 -122 -532 -281 -127
-119 -212 -251 -227 -351 -3 -24 -10 -43 -15 -43 -13 0 -11 19 7 81 22 76 72
162 144 247 l62 74 -54 -39 c-124 -92 -261 -182 -376 -250 l-123 -72 -40 14
c-22 8 -45 17 -50 21 -6 3 42 35 107 70 106 59 224 136 464 305 110 77 383
212 485 240 91 25 188 38 193 26 2 -4 1 -14 -2 -22z m301 9 c164 -34 208 -56
185 -92 -7 -10 -22 -9 -78 4 -74 18 -291 24 -356 11 -39 -8 -45 -3 -28 23 8
12 39 15 180 15 201 0 184 14 -27 22 -79 3 -143 7 -143 9 0 1 3 10 7 19 5 16
17 17 97 11 50 -4 124 -14 163 -22z m-2113 -130 c-33 -56 -35 -63 -32 -134 4
-86 27 -142 86 -203 66 -69 185 -111 295 -106 42 2 95 -17 82 -29 -3 -4 -25
-13 -47 -22 -23 -8 -43 -21 -46 -27 -5 -18 89 -17 131 0 29 12 37 11 82 -9
l50 -22 -47 -20 c-187 -82 -391 -101 -588 -56 -69 15 -73 18 -120 77 -26 34
-47 63 -46 65 2 1 27 -11 57 -28 77 -43 199 -79 288 -87 l76 -6 -29 31 c-35
37 -30 74 11 96 l28 14 -45 12 c-98 26 -190 105 -236 203 -44 94 -28 221 38
301 25 30 33 35 39 23 6 -10 -3 -34 -27 -73z m1794 59 c-2 -11 -30 -26 -78
-43 -156 -56 -287 -134 -360 -217 -66 -75 -94 -146 -96 -238 -1 -71 -4 -80
-21 -83 -17 -3 -21 4 -25 42 -13 113 33 220 139 323 99 97 243 179 383 219 60
17 62 17 58 -3z m436 -46 c27 -7 51 -18 53 -24 3 -8 -12 -6 -44 4 -62 19 -258
28 -348 15 -38 -5 -72 -8 -74 -6 -34 31 305 41 413 11z m-454 -16 c0 -5 -28
-19 -62 -30 -156 -52 -330 -184 -377 -286 -13 -28 -26 -78 -29 -113 -3 -40 -8
-59 -13 -50 -24 37 13 167 67 238 71 91 201 177 344 226 36 13 66 23 68 23 1
1 2 -3 2 -8z m-1696 -57 c3 -9 6 -46 6 -83 0 -57 4 -74 29 -113 30 -47 111
-98 156 -98 12 0 30 -9 41 -21 l19 -21 -40 7 c-118 20 -196 69 -234 148 -23
48 -27 116 -10 166 12 34 24 40 33 15z m2155 0 c17 -4 31 -11 31 -15 0 -5 -12
-6 -27 -2 -50 13 -216 7 -282 -11 -84 -23 -154 -58 -180 -93 -27 -34 -24 -67
7 -71 21 -3 22 -2 10 17 -9 16 -10 23 -1 32 20 20 45 2 41 -28 -4 -38 -49 -54
-78 -28 -25 23 -25 39 0 80 42 68 200 124 356 124 50 1 106 -2 123 -5z m11
-64 c11 -7 -2 -10 -45 -10 -81 -1 -155 -27 -175 -62 -17 -31 -6 -60 24 -66 15
-3 16 -1 4 17 -17 28 3 51 30 35 26 -17 26 -41 -1 -59 -20 -13 -29 -13 -50 -4
-54 25 -38 95 29 128 55 27 156 39 184 21z m-2110 -42 c13 -23 47 -70 77 -105
56 -66 56 -75 -5 -44 -64 33 -112 104 -112 166 0 36 13 31 40 -17z m885 -3
c-88 -72 -487 -285 -533 -285 -19 0 -49 17 -42 23 3 2 43 17 90 32 84 28 330
148 445 218 69 43 82 46 40 12z m-18 -227 c-32 -43 -63 -105 -72 -145 -3 -18
-11 -33 -16 -33 -12 0 -2 41 22 99 11 24 19 45 19 48 0 2 -26 -14 -57 -35 -91
-61 -152 -94 -165 -90 -6 2 17 21 53 41 35 20 102 63 149 96 46 33 86 58 88
56 2 -2 -7 -19 -21 -37z m730 21 c34 -13 80 -55 99 -91 50 -95 -24 -251 -144
-305 -57 -25 -183 -23 -254 6 -67 26 -151 98 -178 152 -25 48 -25 55 -1 62 14
3 23 -3 31 -24 34 -81 145 -150 256 -157 81 -5 130 8 175 45 43 36 59 74 59
137 0 44 -5 60 -26 85 -28 33 -77 52 -118 44 -41 -8 -39 -19 4 -15 32 3 44 -1
75 -30 67 -62 56 -150 -28 -212 -62 -46 -208 -29 -293 33 -42 31 -91 106 -75
115 5 3 14 -7 21 -23 30 -74 134 -133 234 -134 102 -1 166 52 166 136 0 49
-44 97 -87 96 -26 0 -26 -1 -6 -9 50 -20 54 -92 7 -110 -39 -15 -53 -12 -85
19 -23 23 -29 38 -29 71 0 36 6 48 39 81 34 34 45 39 84 39 25 0 58 -5 74 -11z
m-1087 -220 c0 -25 -33 -22 -38 4 -2 12 3 17 17 17 15 0 21 -6 21 -21z m33
-26 c-22 -31 -61 -40 -93 -23 -16 9 -35 6 -90 -14 -136 -49 -466 -96 -483 -69
-4 6 37 12 107 16 128 7 232 26 360 67 64 21 94 26 107 19 10 -5 30 -9 44 -9
20 0 29 7 38 30 7 19 15 26 21 20 7 -7 3 -19 -11 -37z m328 -71 c18 -91 91
-149 160 -127 20 7 20 8 6 17 -20 11 -23 44 -4 51 19 7 47 -12 47 -32 0 -31
-38 -56 -84 -55 -50 1 -88 24 -116 69 -23 36 -44 141 -32 159 4 7 8 3 9 -9 2
-11 8 -44 14 -73z m-55 -115 c48 -93 116 -137 213 -137 47 0 57 4 87 34 23 23
34 43 34 63 0 38 21 66 43 57 29 -11 22 -68 -13 -108 -87 -98 -260 -82 -347
32 -40 53 -63 128 -62 201 l1 56 14 -83 c8 -45 21 -97 30 -115z" />
        <path d="M2919 6997 c-1 -15 -2 -30 -3 -34 -1 -5 -6 -159 -10 -344 -9 -377
-12 -357 65 -427 76 -68 73 -44 73 -632 -1 -360 -3 -415 -27 -620 -36 -317
-38 -348 -28 -409 6 -37 16 -61 31 -73 39 -32 140 -18 155 21 18 47 14 168
-14 443 -29 277 -31 324 -31 681 0 289 3 386 12 395 10 10 10 17 0 33 -25 40
19 141 78 176 59 35 63 57 56 342 -8 314 -16 474 -25 466 -3 -4 -11 -132 -16
-286 -8 -226 -13 -282 -25 -289 -32 -20 -37 7 -44 243 -7 245 -14 342 -25 332
-3 -4 -11 -132 -16 -285 -10 -285 -16 -318 -48 -291 -12 9 -16 63 -21 259 -7
251 -13 329 -24 317 -4 -4 -11 -132 -17 -286 -8 -230 -13 -281 -25 -289 -32
-20 -38 16 -46 288 -9 312 -7 279 -16 288 -5 4 -9 -5 -9 -19z" />
        <path d="M7064 6955 c-16 -24 -16 -75 -9 -628 4 -331 7 -827 6 -1103 -2 -607
10 -766 61 -798 26 -16 69 21 92 80 30 76 27 318 -7 593 -33 265 -33 275 -2
313 42 50 47 92 46 402 -2 532 -33 1020 -71 1120 -19 50 -89 63 -116 21z" />
        <path d="M6617 6955 c-138 -49 -240 -269 -223 -480 15 -185 76 -298 181 -336
43 -16 60 -53 51 -116 -4 -28 -2 -51 5 -59 8 -9 10 -137 6 -431 -4 -373 -7
-443 -31 -648 -18 -148 -26 -265 -24 -328 3 -90 5 -101 27 -118 32 -26 110
-26 142 0 21 17 24 29 27 108 2 49 -6 174 -17 279 -36 327 -41 410 -41 772 0
250 3 358 12 371 6 11 8 26 3 37 -9 21 -9 24 -1 75 6 33 13 40 61 64 98 47
145 131 165 291 23 186 -29 365 -138 466 -69 65 -130 80 -205 53z m-17 -97
c-64 -84 -85 -160 -85 -303 0 -89 5 -133 18 -172 40 -115 114 -175 218 -177
32 -1 55 -4 53 -7 -10 -16 -100 -31 -156 -26 -87 8 -133 42 -178 132 -35 69
-35 70 -35 205 0 153 13 209 71 295 33 50 96 105 121 105 7 0 -5 -24 -27 -52z" />
        <path d="M7509 6669 c-22 -42 -69 -194 -84 -272 -30 -160 -12 -345 45 -458 35
-68 107 -136 232 -220 65 -44 123 -89 130 -101 10 -18 14 -135 16 -510 3 -537
3 -539 -58 -576 -17 -11 -67 -27 -112 -37 -79 -17 -148 -40 -148 -50 0 -3 161
-5 358 -4 327 1 354 2 322 16 -19 8 -76 25 -127 38 -51 12 -105 30 -119 40
-55 36 -55 42 -48 576 7 471 8 491 27 516 11 14 66 55 121 90 124 80 177 130
221 208 53 96 69 163 69 300 0 149 -26 278 -85 415 l-21 50 -364 0 c-361 0
-363 0 -375 -21z" />
        <path d="M2176 6463 c-25 -120 -54 -523 -42 -586 4 -20 19 -50 33 -67 18 -22
25 -41 24 -63 -4 -49 -4 -57 4 -292 8 -223 0 -400 -30 -665 -13 -121 -19 -210
-16 -277 1 -42 32 -73 71 -73 55 0 70 28 70 128 0 48 -10 164 -21 257 -24 207
-37 704 -21 808 8 47 8 77 0 97 -8 24 -7 35 6 53 9 12 24 33 33 47 15 20 18
46 17 165 -1 140 -29 442 -45 480 -5 11 -8 -74 -7 -200 1 -121 -1 -226 -6
-233 -9 -15 -38 -16 -53 -1 -8 8 -9 77 -6 230 6 205 3 257 -11 192z" />
        <path d="M2468 6480 c-4 -8 -9 -140 -13 -293 -7 -309 -9 -298 61 -359 38 -34
59 -90 43 -120 -7 -14 -7 -23 1 -33 21 -26 7 -663 -19 -880 -26 -213 -25 -320
4 -341 28 -21 91 -18 115 6 27 27 27 123 -2 368 -30 265 -32 885 -3 958 7 17
29 43 48 58 19 15 38 35 42 44 9 21 6 392 -4 517 l-7 90 -7 -65 c-3 -36 -9
-137 -12 -225 -6 -154 -14 -190 -35 -169 -5 5 -13 108 -16 227 -4 120 -11 220
-16 223 -4 3 -8 -10 -8 -28 -1 -94 -20 -421 -24 -425 -3 -3 -12 -3 -19 0 -12
4 -16 50 -22 231 -4 124 -11 226 -15 226 -4 0 -11 -93 -14 -207 -8 -230 -10
-253 -30 -253 -20 0 -26 32 -27 165 -1 150 -13 305 -21 285z" />
        <path d="M1245 6227 c-9 -29 -15 -90 -15 -143 0 -183 73 -331 252 -507 l99
-98 -3 -454 -3 -454 -29 -30 c-19 -19 -52 -37 -96 -50 -37 -12 -73 -27 -79
-35 -11 -13 19 -15 226 -15 227 0 237 0 214 17 -13 9 -51 26 -85 38 -46 15
-67 29 -85 55 l-23 34 5 449 5 448 86 80 c149 138 232 268 262 409 17 79 14
193 -6 262 l-11 37 -319 2 c-176 1 -334 2 -350 3 -28 2 -31 -2 -45 -48z" />
        <path d="M8371 5627 c-35 -103 -44 -181 -31 -259 16 -93 55 -149 149 -214 41
-28 78 -60 82 -70 4 -10 8 -140 8 -287 l1 -268 -24 -23 c-13 -14 -45 -29 -77
-35 -113 -24 -87 -31 116 -31 205 1 220 5 111 34 -33 8 -66 21 -73 29 -11 11
-14 67 -13 295 0 155 3 287 5 294 3 7 31 30 63 50 136 88 167 144 166 298 0
85 -5 119 -25 175 l-24 70 -207 3 -206 2 -21 -63z" />
        <path d="M2956 4076 c-87 -33 -129 -92 -127 -178 2 -88 42 -138 215 -268 73
-55 103 -95 111 -145 12 -79 -53 -148 -139 -149 -105 -1 -171 37 -182 105 -4
21 -10 39 -14 39 -9 0 -21 -125 -14 -144 12 -32 158 -54 249 -37 107 20 169
82 181 183 12 102 -34 170 -186 278 -54 38 -108 81 -119 96 -31 39 -37 91 -16
129 24 45 57 60 136 60 79 0 118 -22 134 -73 14 -50 25 -38 25 28 0 33 1 63 3
67 7 20 -207 27 -257 9z" />
        <path d="M3399 4063 c-5 -15 -12 -47 -15 -72 -5 -49 -7 -49 32 6 13 20 80 32
177 33 l77 0 -1 -317 c-1 -175 -4 -331 -8 -347 -4 -18 -16 -32 -36 -41 -27
-11 -18 -13 93 -16 132 -4 187 4 114 16 -24 4 -47 15 -52 25 -7 12 -15 534
-11 664 1 18 8 19 100 13 112 -6 138 -16 153 -58 6 -17 12 -28 15 -26 2 3 6
33 10 68 l5 64 -288 0 c-159 0 -304 3 -322 7 -29 7 -34 5 -43 -19z" />
        <path d="M4381 4068 c-5 -13 -64 -165 -131 -338 -67 -173 -128 -327 -136 -341
-17 -34 -39 -52 -83 -65 -31 -10 -20 -12 89 -13 116 0 123 1 93 14 -20 9 -33
21 -32 32 0 10 17 65 38 123 l38 105 130 3 130 3 47 -120 c31 -77 45 -127 41
-141 -6 -19 -3 -20 107 -19 110 0 112 1 74 15 -73 26 -69 19 -251 469 -109
268 -121 295 -136 295 -5 0 -13 -10 -18 -22z m59 -277 c27 -73 50 -139 50
-147 0 -11 -22 -14 -105 -14 -58 0 -105 3 -105 6 0 5 78 232 96 277 3 10 8 16
10 14 2 -1 26 -63 54 -136z" />
        <path d="M6782 3988 c-22 -57 -81 -207 -130 -333 -104 -268 -124 -311 -151
-320 -26 -8 -78 20 -120 64 -43 46 -160 187 -190 228 l-24 32 46 52 c113 129
101 269 -27 333 -58 29 -59 30 -247 31 -104 0 -189 -3 -189 -7 0 -4 10 -8 23
-8 13 0 32 -6 43 -14 18 -14 19 -29 19 -338 0 -178 -3 -335 -7 -349 -5 -18
-18 -29 -40 -36 -26 -9 -5 -11 107 -11 136 0 139 0 94 14 -56 17 -59 26 -59
190 l0 114 74 0 74 0 98 -126 c55 -70 116 -141 137 -158 l39 -31 161 -2 c151
-3 160 -2 128 12 -39 18 -39 19 16 168 l36 97 127 0 128 0 51 -127 c38 -96 48
-130 40 -140 -10 -11 8 -13 102 -12 l114 1 -43 15 c-29 10 -51 27 -67 52 -13
20 -85 188 -161 374 -78 190 -143 337 -150 337 -7 0 -30 -46 -52 -102z m-671
26 c49 -29 79 -94 79 -171 0 -75 -17 -121 -55 -151 -22 -18 -41 -22 -94 -22
-120 0 -111 -14 -111 185 0 129 3 175 13 179 25 12 137 -2 168 -20z m764 -229
c26 -71 50 -136 53 -142 3 -10 -22 -13 -107 -13 -61 0 -111 2 -111 4 0 21 104
295 110 289 4 -4 28 -66 55 -138z" />
        <path d="M7376 4074 c-3 -9 -6 -174 -6 -369 0 -380 2 -363 -55 -383 -24 -8 -4
-10 100 -10 117 0 126 1 90 12 -26 7 -44 21 -52 36 -7 16 -14 125 -19 293 l-7
269 170 -179 c216 -226 438 -443 452 -443 8 0 11 82 12 278 1 152 4 320 8 372
l6 95 34 11 c19 6 30 13 25 16 -9 4 -224 3 -234 -2 -3 -1 15 -7 39 -14 34 -9
46 -18 51 -36 7 -25 22 -560 17 -560 -2 0 -140 142 -306 315 -167 173 -307
315 -311 315 -4 0 -11 -7 -14 -16z" />
        <path d="M8251 4052 c-27 -108 -23 -129 14 -69 15 24 30 33 60 39 66 11 193 9
197 -3 6 -18 -1 -630 -7 -657 -4 -14 -19 -29 -38 -37 -30 -13 -23 -14 97 -17
129 -3 180 5 113 17 -20 4 -42 14 -49 23 -10 11 -14 96 -16 350 l-3 335 104
-5 c118 -6 145 -17 154 -59 10 -52 23 -31 23 39 l0 67 -287 0 c-159 0 -302 3
-320 7 -31 7 -33 6 -42 -30z" />
        <path d="M1360 4070 c0 -4 17 -11 38 -16 l37 -9 8 -70 c9 -76 2 -587 -8 -621
-4 -12 -20 -26 -38 -32 -25 -8 -1 -10 108 -10 87 0 132 3 120 8 -11 5 -30 9
-42 9 -35 1 -43 31 -43 170 l0 131 74 0 73 0 72 -95 c94 -122 157 -193 190
-209 30 -16 157 -27 186 -16 15 5 8 10 -33 20 -63 15 -110 57 -245 222 l-88
108 34 29 c39 35 83 111 92 164 16 84 -29 162 -115 200 -39 18 -69 20 -232 22
-104 1 -188 -1 -188 -5z m360 -56 c42 -25 70 -72 77 -132 9 -81 -4 -137 -41
-177 -32 -33 -36 -35 -102 -35 -123 0 -114 -14 -114 185 0 129 3 175 13 179
25 12 135 -2 167 -20z" />
        <path d="M2163 4068 c-2 -5 7 -8 21 -8 14 0 35 -9 46 -20 19 -19 20 -33 20
-314 0 -362 -2 -383 -44 -400 -27 -11 -5 -13 177 -19 134 -5 215 -3 227 3 19
10 36 80 28 116 -3 15 -8 11 -20 -18 -22 -49 -43 -58 -140 -58 -130 0 -128 -2
-128 186 l0 154 83 0 c108 0 127 -6 134 -41 9 -48 20 -33 26 39 6 72 3 82 -15
64 -8 -8 -50 -12 -120 -12 l-108 0 0 145 0 145 83 -1 c120 -1 134 -7 152 -64
9 -29 21 -2 27 60 l5 50 -225 0 c-123 0 -226 -3 -229 -7z" />
        <path d="M4824 4068 c-3 -4 5 -8 18 -8 14 0 33 -6 44 -14 18 -13 19 -32 24
-278 5 -248 7 -266 29 -316 46 -103 136 -155 271 -156 113 -1 179 22 240 83
74 75 82 111 89 409 6 268 7 271 55 272 11 0 16 3 12 7 -10 10 -226 13 -226 3
0 -4 15 -11 34 -14 19 -4 37 -14 40 -22 3 -9 6 -122 6 -253 0 -260 -8 -313
-57 -371 -41 -49 -92 -70 -171 -70 -62 0 -75 4 -118 33 -32 21 -57 48 -74 82
-25 49 -25 53 -28 311 -3 231 -1 263 13 278 9 9 25 16 36 16 10 0 19 3 19 8 0
10 -250 10 -256 0z" />
    </g>
</svg>