<?xml version="1.0" standalone="no"?>
<!DOCTYPE svg PUBLIC "-//W3C//DTD SVG 20010904//EN"
 "http://www.w3.org/TR/2001/REC-SVG-20010904/DTD/svg10.dtd">
<svg version="1.0" xmlns="http://www.w3.org/2000/svg"
 width="512.000000pt" height="512.000000pt" viewBox="0 0 512.000000 512.000000"
 preserveAspectRatio="xMidYMid meet">

<g transform="translate(0.000000,512.000000) scale(0.100000,-0.100000)"
fill="#000000" stroke="none">
<path d="M2438 5110 c-130 -23 -270 -89 -276 -128 -5 -35 22 -36 74 -3 99 60
164 75 324 76 161 0 203 -9 319 -72 68 -36 94 -37 89 -1 -4 28 -117 90 -207
113 -76 20 -254 28 -323 15z"/>
<path d="M2407 5004 c-73 -18 -157 -58 -206 -101 -62 -52 -80 -100 -87 -234
l-7 -116 91 -100 c128 -141 148 -156 191 -149 32 5 82 44 81 64 -1 4 -24 21
-52 37 -97 56 -157 172 -144 279 11 96 76 190 163 235 51 26 130 33 195 16
136 -34 223 -147 221 -285 -1 -107 -58 -203 -147 -251 -25 -13 -46 -28 -46
-32 0 -5 14 -22 30 -39 27 -26 36 -30 68 -25 31 5 54 23 140 114 57 59 108
119 113 133 19 44 1 217 -27 277 -39 81 -139 148 -266 178 -78 18 -234 18
-311 -1z"/>
<path d="M2476 4895 c-98 -35 -166 -133 -166 -239 1 -148 108 -256 256 -256
46 0 73 6 115 28 197 100 179 394 -28 468 -49 17 -128 17 -177 -1z"/>
<path d="M1315 4751 c-94 -23 -150 -50 -241 -112 -97 -68 -185 -164 -229 -252
-42 -83 -45 -117 -12 -117 18 0 29 16 60 81 70 147 230 280 402 335 42 13 95
24 119 24 51 0 76 21 56 45 -16 19 -67 18 -155 -4z"/>
<path d="M3654 4755 c-10 -25 16 -45 55 -45 98 0 250 -64 359 -151 72 -58 152
-160 184 -236 15 -37 27 -53 40 -53 46 0 30 66 -43 175 -101 150 -271 267
-451 310 -83 19 -137 19 -144 0z"/>
<path d="M1330 4656 c-222 -64 -422 -264 -437 -437 -3 -31 -3 -73 1 -92 6 -34
112 -207 134 -221 6 -4 79 -20 162 -37 129 -26 156 -29 181 -18 34 13 62 59
57 92 -3 21 -8 22 -83 22 -91 1 -146 20 -209 75 -92 82 -119 227 -63 342 51
103 142 161 257 161 222 2 361 -230 258 -432 -11 -20 -10 -25 7 -37 28 -21 70
-17 100 9 25 21 29 35 47 175 11 84 17 163 14 175 -10 39 -132 181 -177 206
-52 30 -177 38 -249 17z"/>
<path d="M3600 4661 c-58 -18 -94 -46 -161 -129 l-71 -87 6 -75 c15 -191 28
-253 57 -282 30 -30 73 -37 103 -15 16 12 16 15 -3 57 -28 65 -34 121 -21 184
23 110 104 192 221 222 57 15 68 15 125 1 145 -36 230 -143 228 -287 -1 -114
-59 -207 -162 -257 -47 -23 -70 -27 -137 -28 -80 -1 -80 -1 -83 -28 -4 -36 18
-71 56 -86 25 -11 50 -9 164 14 73 14 145 31 161 37 18 7 46 39 80 92 71 110
80 134 75 209 -11 173 -199 375 -411 442 -79 25 -174 32 -227 16z"/>
<path d="M1225 4486 c-94 -44 -144 -126 -145 -232 0 -105 52 -187 145 -230
170 -80 365 44 365 231 0 184 -198 310 -365 231z"/>
<path d="M3706 4495 c-98 -35 -166 -133 -166 -239 1 -148 108 -256 255 -256
147 0 254 108 255 256 0 176 -176 299 -344 239z"/>
<path d="M2365 4224 c-101 -15 -241 -49 -332 -79 -496 -166 -889 -559 -1053
-1054 -120 -360 -120 -702 0 -1062 194 -586 698 -1014 1315 -1119 113 -19 154
-22 315 -17 134 4 212 11 285 27 220 47 418 130 610 257 141 93 347 300 444
447 383 577 385 1291 4 1866 -105 158 -304 358 -456 458 -191 125 -381 205
-602 252 -79 17 -142 22 -300 25 -110 2 -213 1 -230 -1z m353 -45 c125 -13
260 -41 359 -74 102 -34 299 -131 390 -192 360 -242 609 -616 695 -1046 33
-162 33 -452 0 -614 -213 -1058 -1360 -1627 -2317 -1150 -449 223 -754 613
-871 1112 -27 113 -28 133 -28 345 0 194 3 238 22 323 112 505 424 908 877
1135 271 135 583 193 873 161z"/>
<path d="M294 3627 c-56 -57 -82 -94 -117 -168 -66 -135 -81 -201 -81 -344 0
-134 18 -200 51 -193 19 4 19 -2 7 164 -13 181 59 376 187 508 38 39 69 73 69
76 0 10 -23 30 -34 30 -6 0 -43 -33 -82 -73z"/>
<path d="M4733 3693 c-25 -9 -12 -31 56 -101 76 -77 138 -188 166 -297 24 -92
30 -219 13 -292 -16 -66 -11 -87 18 -81 49 9 65 241 25 383 -36 132 -95 240
-177 323 -70 71 -77 75 -101 65z"/>
<path d="M525 3661 c-99 -24 -204 -125 -265 -253 -53 -109 -73 -208 -67 -318
11 -173 61 -244 217 -304 52 -20 106 -36 119 -36 34 0 282 116 304 142 23 27
22 90 -2 119 l-20 24 -38 -37 c-137 -133 -370 -95 -457 75 -116 228 93 484
337 413 104 -30 187 -122 205 -227 8 -41 10 -44 38 -42 36 3 74 44 74 81 0 34
-144 298 -170 312 -20 11 -219 61 -235 59 -5 -1 -23 -4 -40 -8z"/>
<path d="M4440 3644 c-52 -14 -104 -31 -115 -38 -30 -20 -165 -271 -165 -307
0 -36 47 -89 79 -89 16 0 22 10 31 54 56 269 425 319 544 73 33 -68 41 -122
27 -189 -37 -179 -239 -281 -404 -205 -29 13 -67 39 -85 57 l-33 33 -22 -22
c-29 -28 -30 -93 -2 -120 27 -27 275 -141 306 -141 37 0 206 68 240 97 157
133 115 517 -78 715 -99 101 -178 121 -323 82z"/>
<path d="M529 3459 c-59 -9 -95 -28 -141 -76 -48 -50 -70 -104 -70 -174 0
-138 96 -244 232 -256 74 -7 136 14 193 66 190 172 41 478 -214 440z"/>
<path d="M4445 3438 c-101 -52 -150 -139 -143 -249 19 -261 366 -330 482 -97
67 135 -5 315 -143 356 -61 19 -150 14 -196 -10z"/>
<path d="M400 2330 c-150 -61 -197 -129 -207 -300 -15 -258 154 -539 347 -574
35 -6 219 32 260 54 26 14 170 278 170 312 0 37 -38 78 -74 81 -28 2 -30 -1
-38 -42 -18 -105 -101 -197 -205 -227 -228 -66 -436 159 -352 381 73 194 324
251 472 107 l38 -37 20 24 c24 29 25 92 2 119 -24 29 -273 142 -309 141 -16 0
-72 -18 -124 -39z"/>
<path d="M4445 2309 c-71 -33 -138 -67 -147 -76 -26 -23 -32 -67 -14 -102 23
-44 33 -46 69 -10 123 123 341 102 440 -42 52 -75 67 -160 43 -241 -31 -108
-116 -187 -228 -210 -150 -31 -306 74 -338 227 -9 45 -15 55 -31 55 -32 0 -79
-53 -79 -89 0 -34 127 -275 159 -302 27 -22 187 -63 247 -62 170 1 349 242
371 499 10 128 -30 261 -96 317 -35 29 -204 97 -241 97 -14 0 -83 -28 -155
-61z"/>
<path d="M113 2163 c-24 -54 -23 -254 1 -343 30 -112 99 -242 168 -315 72 -78
93 -91 114 -74 8 6 14 14 14 18 0 3 -31 38 -69 77 -128 132 -200 327 -187 508
12 166 12 160 -7 164 -12 3 -22 -8 -34 -35z"/>
<path d="M4958 2189 c-2 -7 2 -40 10 -74 17 -71 11 -199 -13 -290 -28 -109
-90 -220 -166 -297 -71 -73 -81 -91 -53 -102 38 -15 155 111 213 228 62 126
85 221 84 351 -1 125 -17 188 -50 193 -12 2 -23 -3 -25 -9z"/>
<path d="M486 2155 c-98 -35 -169 -134 -168 -239 0 -74 21 -128 70 -180 52
-54 104 -76 182 -76 282 0 358 372 100 489 -52 24 -127 26 -184 6z"/>
<path d="M4463 2154 c-47 -17 -114 -77 -139 -126 -26 -50 -30 -149 -9 -204 39
-102 129 -164 238 -164 36 0 81 7 100 15 135 56 196 222 131 353 -58 117 -194
170 -321 126z"/>
<path d="M1185 1251 c-72 -15 -138 -30 -148 -34 -25 -9 -135 -182 -143 -224
-22 -117 28 -237 145 -353 133 -131 248 -184 401 -185 83 0 100 3 139 25 45
26 167 168 177 207 3 12 -3 91 -14 175 -18 140 -22 154 -47 175 -30 26 -72 30
-100 9 -17 -12 -18 -17 -7 -37 42 -84 46 -182 9 -262 -105 -229 -425 -228
-531 2 -29 65 -28 180 2 238 34 66 78 110 140 140 48 24 70 28 137 28 69 0 80
2 83 18 9 47 -46 109 -95 106 -10 -1 -77 -13 -148 -28z"/>
<path d="M3743 1260 c-32 -19 -48 -52 -41 -87 3 -15 14 -18 83 -18 59 0 92 -6
126 -21 108 -50 173 -148 173 -263 1 -145 -82 -250 -226 -287 -56 -15 -67 -15
-125 0 -188 46 -279 228 -202 406 19 42 19 45 3 57 -30 22 -73 15 -103 -15
-29 -29 -42 -91 -57 -282 l-6 -75 71 -87 c87 -107 126 -129 232 -136 64 -4 87
0 161 25 160 55 304 177 371 313 28 56 32 75 32 145 l0 80 -60 94 c-41 63 -70
98 -90 107 -26 12 -271 64 -299 64 -6 0 -26 -9 -43 -20z"/>
<path d="M1224 1096 c-127 -59 -181 -212 -120 -341 44 -96 138 -150 245 -143
78 6 118 24 171 79 86 89 94 230 17 331 -71 93 -204 125 -313 74z"/>
<path d="M3685 1096 c-130 -60 -184 -220 -117 -347 97 -186 357 -186 454 0 51
97 30 230 -48 303 -75 69 -196 88 -289 44z"/>
<path d="M810 826 c0 -41 68 -161 129 -228 66 -71 182 -156 263 -192 59 -26
181 -56 226 -56 16 0 35 7 42 15 21 25 -4 42 -73 48 -197 19 -418 175 -504
355 -31 66 -42 82 -60 82 -18 0 -23 -6 -23 -24z"/>
<path d="M4256 806 c-75 -195 -350 -395 -546 -396 -44 0 -63 -12 -58 -36 8
-45 168 -18 306 51 152 76 277 199 339 333 28 59 27 86 -3 90 -17 2 -24 -6
-38 -42z"/>
<path d="M2321 795 c-18 -15 -73 -73 -123 -128 l-91 -100 7 -116 c7 -134 25
-182 87 -234 217 -186 679 -141 783 76 28 60 46 233 27 277 -5 14 -56 74 -113
133 -86 91 -109 109 -140 114 -32 5 -41 1 -68 -25 -16 -17 -30 -34 -30 -39 0
-4 21 -19 46 -32 90 -48 146 -144 147 -251 2 -164 -129 -295 -293 -293 -191 1
-329 184 -276 366 21 73 69 135 134 172 28 17 51 33 52 37 1 20 -49 59 -81 64
-29 5 -41 1 -68 -21z"/>
<path d="M2455 696 c-94 -44 -144 -126 -145 -232 0 -195 216 -318 385 -219
174 102 163 366 -20 451 -68 32 -152 32 -220 0z"/>
<path d="M2164 155 c-11 -27 3 -41 73 -77 102 -54 178 -71 318 -72 147 -1 221
14 328 68 62 31 83 47 85 64 5 36 -21 36 -89 -1 -116 -63 -158 -72 -319 -72
-160 1 -225 16 -323 76 -54 33 -65 35 -73 14z"/>
</g>
</svg>
