<?xml version="1.0" standalone="no"?>
<!DOCTYPE svg PUBLIC "-//W3C//DTD SVG 20010904//EN"
 "http://www.w3.org/TR/2001/REC-SVG-20010904/DTD/svg10.dtd">
<svg version="1.0" xmlns="http://www.w3.org/2000/svg"
 width="128.000000pt" height="128.000000pt" viewBox="0 0 128.000000 128.000000"
 preserveAspectRatio="xMidYMid meet">

<g transform="translate(0.000000,128.000000) scale(0.100000,-0.100000)"
fill="#000000" stroke="none">
<path d="M284 1070 c-12 -5 -25 -13 -28 -19 -4 -6 9 -4 28 4 46 19 119 19 156
0 17 -9 30 -11 30 -6 0 25 -137 41 -186 21z"/>
<path d="M564 1071 c-12 -5 -25 -15 -29 -21 -4 -7 6 -5 23 4 40 21 124 20 165
0 31 -16 31 -16 14 2 -19 21 -136 31 -173 15z"/>
<path d="M838 1069 c-16 -6 -28 -15 -28 -20 0 -5 13 -3 30 6 37 19 110 19 158
0 35 -15 36 -15 19 2 -20 21 -136 29 -179 12z"/>
<path d="M303 1049 c-66 -20 -85 -100 -36 -151 15 -15 35 -28 45 -28 24 0 23
4 -7 34 -33 33 -33 79 0 111 77 78 184 -38 108 -117 -25 -26 -25 -28 -7 -28
11 0 33 13 48 29 36 38 34 104 -4 132 -30 23 -103 32 -147 18z"/>
<path d="M583 1049 c-66 -19 -85 -100 -36 -151 15 -15 35 -28 45 -28 24 0 23
4 -7 34 -50 50 -15 136 55 136 70 0 105 -86 55 -136 -30 -30 -31 -34 -7 -34
31 0 72 52 72 91 0 46 -23 76 -68 89 -43 12 -65 12 -109 -1z"/>
<path d="M866 1050 c-47 -14 -66 -39 -66 -84 0 -45 39 -96 74 -96 18 0 18 2
-7 28 -52 54 -19 142 53 142 70 0 105 -86 55 -136 -30 -30 -31 -34 -7 -34 31
0 72 52 72 91 0 46 -23 76 -68 89 -43 12 -66 12 -106 0z"/>
<path d="M315 1005 c-14 -13 -25 -33 -25 -45 0 -26 43 -70 68 -70 30 0 72 38
72 66 0 30 -41 74 -70 74 -11 0 -32 -11 -45 -25z"/>
<path d="M595 1005 c-14 -13 -25 -33 -25 -45 0 -11 11 -32 25 -45 13 -14 34
-25 45 -25 12 0 32 11 45 25 14 13 25 34 25 45 0 12 -11 32 -25 45 -13 14 -33
25 -45 25 -11 0 -32 -11 -45 -25z"/>
<path d="M875 1005 c-14 -13 -25 -35 -25 -48 0 -29 39 -67 69 -67 28 0 71 42
71 70 0 12 -11 32 -25 45 -13 14 -33 25 -45 25 -11 0 -32 -11 -45 -25z"/>
<path d="M247 833 c-4 -3 -7 -93 -7 -200 l0 -193 400 0 400 0 -2 198 -3 197
-391 3 c-215 1 -393 -1 -397 -5z m783 -193 l0 -190 -390 0 -390 0 0 190 0 190
390 0 390 0 0 -190z"/>
<path d="M74 745 c-51 -35 -59 -152 -14 -200 35 -37 97 -35 134 4 17 18 26 36
23 45 -5 13 -11 12 -31 -9 -53 -53 -136 -18 -136 57 0 70 84 103 131 53 28
-29 39 -31 39 -7 0 25 -64 72 -97 72 -16 0 -38 -7 -49 -15z"/>
<path d="M1093 731 c-18 -15 -33 -35 -33 -44 0 -23 11 -21 39 8 48 51 131 17
131 -54 0 -74 -83 -109 -136 -56 -20 21 -26 22 -31 9 -3 -9 6 -27 23 -45 22
-23 36 -29 69 -29 58 0 87 32 93 103 10 118 -75 177 -155 108z"/>
<path d="M21 723 c-23 -50 -23 -114 -1 -158 11 -22 17 -31 14 -20 -22 70 -24
100 -10 148 17 58 15 71 -3 30z"/>
<path d="M1244 738 c27 -92 28 -112 2 -193 -3 -11 3 -2 14 20 24 46 22 116 -5
162 -9 15 -14 20 -11 11z"/>
<path d="M87 690 c-33 -26 -36 -71 -7 -100 42 -42 113 -11 113 49 0 59 -59 88
-106 51z"/>
<path d="M1122 700 c-46 -19 -48 -95 -3 -119 74 -40 140 56 75 108 -29 23 -38
24 -72 11z"/>
<path d="M266 377 c-44 -57 -31 -118 29 -143 51 -21 107 -18 146 9 29 19 34
29 37 66 3 36 -1 48 -24 72 -15 16 -36 29 -46 29 -24 0 -23 -4 7 -34 33 -33
34 -84 2 -114 -76 -71 -185 41 -112 114 30 30 31 34 6 34 -11 0 -31 -15 -45
-33z"/>
<path d="M546 381 c-38 -39 -34 -104 7 -135 40 -29 134 -29 174 0 41 31 45 96
7 135 -15 16 -36 29 -46 29 -24 0 -23 -4 7 -34 51 -52 17 -136 -55 -136 -72 0
-106 84 -55 136 30 30 31 34 7 34 -10 0 -31 -13 -46 -29z"/>
<path d="M826 381 c-23 -24 -27 -36 -24 -72 3 -37 8 -47 37 -66 39 -27 95 -30
146 -9 60 25 73 86 29 143 -14 18 -34 33 -45 33 -25 0 -24 -4 6 -34 51 -51 15
-136 -58 -136 -70 0 -103 85 -52 136 30 30 31 34 7 34 -10 0 -31 -13 -46 -29z"/>
<path d="M330 377 c-38 -19 -48 -61 -23 -95 26 -36 68 -41 99 -11 31 29 31 63
-1 94 -27 28 -39 30 -75 12z"/>
<path d="M610 377 c-38 -19 -49 -61 -23 -95 29 -39 74 -42 102 -6 26 33 27 55
4 82 -24 27 -53 34 -83 19z"/>
<path d="M876 366 c-32 -31 -33 -66 -3 -94 32 -30 71 -28 96 4 26 33 26 55 4
82 -30 35 -68 38 -97 8z"/>
<path d="M275 214 c40 -24 130 -24 170 -1 26 16 27 17 5 11 -66 -18 -93 -21
-122 -14 -89 23 -86 23 -53 4z"/>
<path d="M555 213 c40 -23 130 -23 170 0 26 16 27 17 5 11 -14 -4 -40 -10 -57
-14 -31 -7 -58 -4 -123 14 -22 6 -21 5 5 -11z"/>
<path d="M835 213 c40 -23 130 -23 170 1 33 19 36 19 -52 -4 -30 -7 -57 -4
-123 14 -22 6 -21 5 5 -11z"/>
</g>
</svg>
