<?xml version="1.0" standalone="no"?>
<!DOCTYPE svg PUBLIC "-//W3C//DTD SVG 20010904//EN"
 "http://www.w3.org/TR/2001/REC-SVG-20010904/DTD/svg10.dtd">
<svg version="1.0" xmlns="http://www.w3.org/2000/svg"
 width="64.000000pt" height="64.000000pt" viewBox="0 0 64.000000 64.000000"
 preserveAspectRatio="xMidYMid meet">

<g transform="translate(0.000000,64.000000) scale(0.100000,-0.100000)"
fill="#000000" stroke="none">
<path d="M230 600 c0 -16 5 -30 10 -30 6 0 10 -9 10 -20 0 -18 -7 -20 -58 -20
-32 0 -63 -5 -70 -12 -7 -7 -12 -38 -12 -70 0 -51 -2 -58 -20 -58 -11 0 -20 5
-20 10 0 6 -13 10 -30 10 l-30 0 0 -90 0 -90 30 0 c17 0 30 5 30 10 0 6 9 10
20 10 18 0 20 -7 20 -58 0 -32 5 -63 12 -70 7 -7 38 -12 70 -12 51 0 58 -2 58
-20 0 -11 -4 -20 -10 -20 -5 0 -10 -13 -10 -30 l0 -30 90 0 90 0 0 30 c0 17
-4 30 -10 30 -5 0 -10 9 -10 20 0 18 7 20 58 20 32 0 63 5 70 12 7 7 12 38 12
70 0 51 2 58 20 58 11 0 20 -4 20 -10 0 -5 14 -10 30 -10 l30 0 0 90 0 90 -30
0 c-16 0 -30 -4 -30 -10 0 -5 -9 -10 -20 -10 -18 0 -20 7 -20 58 0 32 -5 63
-12 70 -7 7 -38 12 -70 12 -51 0 -58 2 -58 20 0 11 5 20 10 20 6 0 10 14 10
30 l0 30 -90 0 -90 0 0 -30z m160 0 c0 -6 -30 -10 -70 -10 -40 0 -70 4 -70 10
0 6 30 10 70 10 40 0 70 -4 70 -10z m-20 -50 c0 -17 -7 -20 -50 -20 -43 0 -50
3 -50 20 0 17 7 20 50 20 43 0 50 -3 50 -20z m140 -230 l0 -190 -190 0 -190 0
0 190 0 190 190 0 190 0 0 -190z m-460 0 c0 -40 -4 -70 -10 -70 -6 0 -10 30
-10 70 0 40 4 70 10 70 6 0 10 -30 10 -70z m560 0 c0 -40 -4 -70 -10 -70 -6 0
-10 30 -10 70 0 40 4 70 10 70 6 0 10 -30 10 -70z m-500 0 c0 -43 -3 -50 -20
-50 -17 0 -20 7 -20 50 0 43 3 50 20 50 17 0 20 -7 20 -50z m460 0 c0 -43 -3
-50 -20 -50 -17 0 -20 7 -20 50 0 43 3 50 20 50 17 0 20 -7 20 -50z m-200
-230 c0 -17 -7 -20 -50 -20 -43 0 -50 3 -50 20 0 17 7 20 50 20 43 0 50 -3 50
-20z m20 -50 c0 -6 -30 -10 -70 -10 -40 0 -70 4 -70 10 0 6 30 10 70 10 40 0
70 -4 70 -10z"/>
</g>
</svg>
