<?xml version="1.0" standalone="no"?>
<!DOCTYPE svg PUBLIC "-//W3C//DTD SVG 20010904//EN"
 "http://www.w3.org/TR/2001/REC-SVG-20010904/DTD/svg10.dtd">
<svg version="1.0" xmlns="http://www.w3.org/2000/svg"
 width="128.000000pt" height="128.000000pt" viewBox="0 0 128.000000 128.000000"
 preserveAspectRatio="xMidYMid meet">

<g transform="translate(0.000000,128.000000) scale(0.100000,-0.100000)"
fill="#000000" stroke="none">
<path d="M385 1115 c-22 -8 -41 -15 -42 -15 -2 0 -3 -5 -3 -10 0 -6 13 -4 30
5 16 8 54 15 85 15 31 0 69 -7 85 -15 17 -9 30 -12 30 -7 0 31 -126 49 -185
27z"/>
<path d="M755 1115 c-22 -8 -41 -15 -42 -15 -2 0 -3 -5 -3 -10 0 -6 13 -4 30
5 16 8 54 15 85 15 31 0 69 -7 85 -15 17 -9 30 -12 30 -7 0 31 -126 49 -185
27z"/>
<path d="M393 1089 c-41 -12 -73 -53 -73 -95 0 -39 51 -104 81 -104 26 0 24
12 -6 40 -27 25 -34 75 -15 109 13 25 64 45 95 37 64 -16 88 -101 40 -146 -30
-28 -32 -40 -6 -40 10 0 33 16 51 37 28 31 31 42 27 75 -7 49 -29 75 -76 88
-43 12 -75 12 -118 -1z"/>
<path d="M764 1089 c-42 -12 -65 -40 -71 -87 -4 -33 -1 -44 27 -75 18 -21 41
-37 51 -37 26 0 24 12 -6 40 -48 45 -24 130 40 146 31 8 82 -12 95 -37 19 -34
12 -84 -15 -109 -30 -28 -32 -40 -6 -40 10 0 33 16 50 35 86 99 -21 206 -165
164z"/>
<path d="M423 1055 c-73 -31 -49 -135 32 -135 37 0 75 37 75 72 0 53 -54 85
-107 63z"/>
<path d="M792 1054 c-47 -19 -55 -80 -16 -119 23 -23 80 -19 104 7 56 60 -10
145 -88 112z"/>
<path d="M270 636 c0 -186 2 -215 16 -220 20 -8 688 -8 708 0 14 5 16 34 16
220 l0 214 -370 0 -370 0 0 -214z m728 -3 l-3 -208 -355 0 -355 0 -3 208 -2
207 360 0 360 0 -2 -207z"/>
<path d="M93 760 c-71 -29 -82 -188 -16 -239 41 -33 92 -28 131 12 18 18 32
41 32 50 0 21 -18 23 -26 3 -3 -8 -21 -22 -39 -31 -30 -14 -38 -14 -69 -1 -61
25 -74 83 -30 135 34 41 89 43 124 6 28 -30 40 -32 40 -6 0 25 -71 81 -101 80
-13 0 -34 -4 -46 -9z"/>
<path d="M1078 739 c-21 -17 -38 -40 -38 -50 0 -26 12 -24 40 6 45 48 130 24
146 -40 10 -39 -15 -85 -53 -102 -30 -12 -38 -12 -68 2 -18 9 -36 23 -39 31
-8 20 -26 17 -26 -4 0 -10 15 -32 33 -50 91 -89 205 16 168 155 -14 50 -39 74
-88 79 -32 4 -44 -1 -75 -27z"/>
<path d="M19 718 c-25 -60 -9 -198 22 -198 5 0 3 13 -6 30 -8 16 -15 54 -15
85 0 31 7 69 15 85 9 17 11 30 6 30 -5 0 -15 -15 -22 -32z"/>
<path d="M1245 720 c8 -16 15 -54 15 -85 0 -31 -7 -69 -15 -85 -9 -17 -11 -30
-6 -30 16 0 36 64 36 115 0 51 -20 115 -36 115 -5 0 -3 -13 6 -30z"/>
<path d="M103 698 c-12 -6 -27 -24 -32 -40 -19 -53 15 -98 73 -98 63 0 90 89
40 129 -29 23 -48 25 -81 9z"/>
<path d="M1096 689 c-50 -39 -23 -129 38 -129 39 0 57 11 71 43 16 39 3 80
-31 96 -35 16 -47 14 -78 -10z"/>
<path d="M352 341 c-51 -64 -37 -127 34 -157 95 -40 205 9 204 91 -1 40 -60
111 -85 102 -15 -6 -14 -10 9 -38 53 -63 19 -149 -59 -149 -77 0 -116 97 -60
150 13 12 22 27 19 31 -11 18 -32 8 -62 -30z"/>
<path d="M722 341 c-51 -64 -37 -127 34 -157 95 -40 205 9 204 91 -1 40 -60
111 -85 101 -16 -6 -16 -9 8 -34 56 -59 21 -152 -58 -152 -77 0 -116 97 -60
150 13 12 22 27 19 31 -11 18 -32 8 -62 -30z"/>
<path d="M401 324 c-28 -36 -26 -70 5 -101 20 -20 31 -24 57 -19 62 12 85 70
46 120 -15 19 -30 26 -54 26 -24 0 -39 -7 -54 -26z"/>
<path d="M771 324 c-12 -15 -21 -38 -21 -51 0 -32 42 -73 75 -73 33 0 75 41
75 73 0 40 -36 77 -75 77 -24 0 -39 -7 -54 -26z"/>
<path d="M353 167 c40 -33 164 -33 203 -1 19 15 19 15 0 10 -91 -30 -120 -30
-201 -1 -19 6 -19 6 -2 -8z"/>
<path d="M723 167 c40 -33 164 -33 203 -1 18 15 18 15 -1 9 -81 -29 -110 -29
-201 1 -18 5 -18 5 -1 -9z"/>
</g>
</svg>
