<?xml version="1.0" standalone="no"?>
<!DOCTYPE svg PUBLIC "-//W3C//DTD SVG 20010904//EN"
 "http://www.w3.org/TR/2001/REC-SVG-20010904/DTD/svg10.dtd">
<svg version="1.0" xmlns="http://www.w3.org/2000/svg"
 width="512.000000pt" height="512.000000pt" viewBox="0 0 512.000000 512.000000"
 preserveAspectRatio="xMidYMid meet">

<g transform="translate(0.000000,512.000000) scale(0.100000,-0.100000)"
fill="#000000" stroke="none">
<path d="M975 4831 c-163 -48 -304 -187 -356 -350 -29 -91 -29 -233 0 -315
135 -380 596 -491 875 -210 98 97 156 235 156 369 0 232 -170 451 -395 510
-78 20 -205 18 -280 -4z"/>
<path d="M1645 4119 c-4 -5 13 -36 37 -67 65 -84 66 -87 4 -46 -45 29 -59 35
-69 25 -9 -10 -6 -17 15 -32 14 -11 37 -28 50 -39 l23 -20 -21 -18 c-54 -46
-72 -127 -50 -222 27 -112 18 -260 -18 -290 -23 -18 -67 11 -138 92 -143 164
-206 213 -328 253 -71 24 -214 25 -288 2 -137 -42 -252 -135 -306 -247 l-31
-65 0 -670 0 -670 27 -57 c51 -110 162 -200 298 -244 47 -15 111 -18 450 -23
l394 -6 69 -595 c38 -327 73 -612 78 -632 25 -98 128 -173 234 -173 135 1 234
103 235 240 0 75 -156 1425 -171 1482 -14 53 -68 117 -123 146 -39 21 -56 22
-283 25 l-243 3 0 364 0 364 84 -6 c234 -16 417 138 471 399 33 157 6 418 -53
503 -34 50 -101 85 -162 85 -45 0 -46 1 -103 75 -58 75 -70 84 -82 64z"/>
<path d="M154 3539 c-23 -5 -59 -25 -82 -44 -77 -67 -73 -2 -70 -1086 l3 -965
29 -44 c27 -41 28 -46 17 -93 -7 -32 -11 -193 -11 -476 0 -423 0 -427 22 -471
55 -109 210 -122 284 -24 l29 37 5 436 c4 348 8 442 19 464 l14 27 396 0 396
0 15 -22 c13 -19 16 -96 20 -464 l5 -441 27 -35 c74 -97 226 -88 285 17 23 40
23 42 23 475 0 251 -5 453 -10 478 -9 39 -8 46 14 75 32 41 51 113 42 158 -11
58 -58 124 -108 148 -44 21 -53 21 -576 21 l-532 0 0 838 c0 790 -1 839 -19
877 -40 89 -138 136 -237 114z"/>
<path d="M3364 3158 c3 -29 10 -136 16 -238 6 -102 13 -204 16 -227 l5 -43
158 0 158 0 6 103 c4 56 10 182 13 280 l7 177 -192 0 -192 0 5 -52z m336 -53
c0 -65 0 -66 -34 -82 -35 -16 -35 -16 -71 15 -28 26 -45 32 -80 32 -24 0 -56
-5 -71 -10 -15 -6 -28 -9 -29 -8 -2 2 -6 29 -10 61 l-7 57 151 0 151 0 0 -65z
m-132 -96 c44 -32 61 -37 103 -26 l26 7 -4 -123 c-2 -67 -6 -137 -9 -155 l-5
-33 -122 3 -122 3 -6 75 c-4 41 -9 114 -12 161 l-6 85 42 16 c59 23 68 22 115
-13z"/>
<path d="M2865 2838 c-27 -35 -49 -64 -50 -66 -1 -1 -14 2 -29 8 -21 8 -28 7
-32 -5 -5 -12 -10 -12 -31 5 -20 15 -29 17 -39 9 -8 -6 -11 -15 -8 -20 3 -5
-17 -9 -44 -9 -35 0 -52 -5 -55 -15 -9 -22 7 -27 84 -24 42 1 74 -2 81 -9 9
-9 -18 -12 -112 -12 -106 0 -122 -2 -110 -14 47 -44 402 -73 579 -47 97 14
181 38 181 51 0 5 -68 11 -157 12 l-158 3 112 38 c88 30 111 42 106 54 -4 9
-14 13 -29 10 -13 -2 -24 0 -24 4 0 14 -188 11 -192 -2 -2 -7 -13 -9 -26 -5
l-23 8 26 30 c26 30 28 49 9 55 -6 2 -32 -25 -59 -59z m50 -75 c45 -15 47 -17
25 -25 -26 -10 -80 10 -80 29 0 16 -3 16 55 -4z m128 10 c-7 -2 -21 -2 -30 0
-10 3 -4 5 12 5 17 0 24 -2 18 -5z m-168 -64 c5 -5 -18 -9 -54 -9 -53 0 -62 2
-57 16 3 9 6 19 6 24 0 10 89 -17 105 -31z"/>
<path d="M2712 2823 c5 -26 105 -36 111 -12 5 18 -27 29 -85 29 -23 0 -29 -4
-26 -17z"/>
<path d="M1900 2430 l0 -120 226 0 c211 0 226 -1 219 -17 -46 -109 -45 -98
-45 -782 0 -709 -1 -698 60 -806 74 -130 240 -235 372 -235 l38 0 0 119 0 119
-39 7 c-59 10 -125 57 -158 112 l-28 48 0 635 0 635 28 48 c32 55 82 91 147
107 31 7 281 10 815 8 l770 -3 41 -22 c51 -27 98 -80 115 -130 11 -30 14 -161
14 -653 0 -612 0 -615 -22 -656 -34 -63 -81 -103 -145 -122 l-58 -17 0 -117 0
-118 38 0 c21 0 61 7 89 15 167 50 302 198 333 367 7 36 10 283 8 695 -3 635
-3 638 -25 693 -13 30 -23 58 -23 63 0 4 101 7 225 7 l225 0 0 120 0 120
-1610 0 -1610 0 0 -120z"/>
</g>
</svg>
